<?xml version="1.0" standalone="no"?>
<!DOCTYPE svg PUBLIC "-//W3C//DTD SVG 1.1//EN" "http://www.w3.org/Graphics/SVG/1.1/DTD/svg11.dtd" >
<svg xmlns="http://www.w3.org/2000/svg">
<metadata>
Created by FontForge 20120731 at Mon Jan 11 11:03:15 2016
 By Ads
</metadata>
<defs>
<font id="iconfont" horiz-adv-x="1024" >
  <font-face 
    font-family="iconfont"
    font-weight="500"
    font-stretch="normal"
    units-per-em="1024"
    panose-1="2 0 6 3 0 0 0 0 0 0"
    ascent="896"
    descent="-128"
    x-height="792"
    bbox="34 -158 991 832"
    underline-thickness="50"
    underline-position="-100"
    unicode-range="U+0078-E613"
  />
<missing-glyph horiz-adv-x="374" 
d="M34 0v682h272v-682h-272zM68 34h204v614h-204v-614z" />
    <glyph glyph-name=".notdef" horiz-adv-x="374" 
d="M34 0v682h272v-682h-272zM68 34h204v614h-204v-614z" />
    <glyph glyph-name=".null" horiz-adv-x="0" 
 />
    <glyph glyph-name="nonmarkingreturn" horiz-adv-x="341" 
 />
    <glyph glyph-name="x" unicode="x" horiz-adv-x="1001" 
d="M281 543q-27 -1 -53 -1h-83q-18 0 -36.5 -6t-32.5 -18.5t-23 -32t-9 -45.5v-76h912v41q0 16 -0.5 30t-0.5 18q0 13 -5 29t-17 29.5t-31.5 22.5t-49.5 9h-133v-97h-438v97zM955 310v-52q0 -23 0.5 -52t0.5 -58t-10.5 -47.5t-26 -30t-33 -16t-31.5 -4.5q-14 -1 -29.5 -0.5
t-29.5 0.5h-32l-45 128h-439l-44 -128h-29h-34q-20 0 -45 1q-25 0 -41 9.5t-25.5 23t-13.5 29.5t-4 30v167h911zM163 247q-12 0 -21 -8.5t-9 -21.5t9 -21.5t21 -8.5q13 0 22 8.5t9 21.5t-9 21.5t-22 8.5zM316 123q-8 -26 -14 -48q-5 -19 -10.5 -37t-7.5 -25t-3 -15t1 -14.5
t9.5 -10.5t21.5 -4h37h67h81h80h64h36q23 0 34 12t2 38q-5 13 -9.5 30.5t-9.5 34.5q-5 19 -11 39h-368zM336 498v228q0 11 2.5 23t10 21.5t20.5 15.5t34 6h188q31 0 51.5 -14.5t20.5 -52.5v-227h-327z" />
    <glyph glyph-name="uniE600" unicode="&#xe600;" 
d="M897 609v-511q-1 -2 -2.5 -2.5t-4.5 -0.5h-303h-3v-2q3 -13 6 -23q11 -44 13 -53q1 -2 2 -2q4 0 10.5 -0.5t10.5 -1t10 -1t10 -0.5q10 -2 19.5 -3.5t21.5 -3.5q5 -1 13 -5q6 -3 0 -7q-3 -2 -5 -3q-6 -2 -10 -3q-20 -5 -56 -8q-45 -4 -91 -4q-19 -1 -38.5 -0.5t-40.5 0.5
q-55 2 -96 8q-3 0 -5.5 0.5t-4.5 1t-5 1t-5 1t-5.5 1.5t-4.5 1.5t-3 0.5l-2 2q-2 0 -3 1q-5 3 0 7q3 1 5 2q13 4 17 5q26 5 72 8q2 0 3 3q2 9 4.5 19t4.5 17.5t5 20t5 17.5v2v1h-4h-49h-52h-48h-54h-48h-51q-5 0 -7 3v511l4 7q1 3 4 5q1 1 2 1l4 2q1 0 2 1h737l8 -4
q5 -3 8 -12zM158 197h709v397h-709v-397zM512.5 116q6.5 0 11 5t4.5 11.5t-4.5 11t-10.5 4.5q-4 0 -7 -1.5t-5 -3.5t-3 -5t-1 -6q0 -6 4.5 -11t11 -5zM144 625l-8 -4q-2 -1 -3.5 -3.5t-2.5 -4t-2 -4.5v16h16zM897 609q-1 4 -3 7t-5 5l-8 4h16v-16z" />
    <glyph glyph-name="uniE601" unicode="&#xe601;" 
d="M827 141l-64 85l-1 1q-2 2 -2 6v42h-34v-42q0 -8 3 -15.5t8 -13.5l64 -85l1 -1q1 -1 1.5 -2.5t0.5 -3.5v-42q0 -4 -2.5 -6.5t-5.5 -2.5h-284h-284q-8 0 -8 9v42q0 2 0.5 3.5t1.5 2.5l1 1l64 85q11 12 11 29v161q0 48 15.5 90t44.5 74t67 48q7 3 14 5.5t14 4.5t14 3.5
t14.5 2.5t15 1.5t15.5 0.5q47 0 87 -18q38 -17 67 -48q6 -7 11 -13.5t10 -14t9 -15t7.5 -15.5t6.5 -16.5t5.5 -17t4.5 -17t3 -18t2 -18.5t1 -18v-41h34v41q0 17 -2 34.5t-6 34t-10 32.5t-13.5 30.5t-17 28t-20.5 26.5q-41 45 -99 64q-1 10 -4 19.5t-8.5 17.5t-13 15
t-16.5 11.5t-18.5 7t-19.5 2.5q-32 0 -55 -21t-26 -52q-57 -19 -98 -64q-69 -76 -69 -187v-161q0 -4 -2 -6l-1 -1l-64 -85q-4 -4 -6.5 -8.5t-4 -10t-1.5 -10.5v-42q0 -18 12.5 -30.5t30.5 -12.5h284h284q17 0 29.5 12.5t12.5 30.5v42q0 17 -11 29zM512 684q6 0 11.5 -1.5
t10.5 -4t9 -6t7 -8t6 -9.5q-22 4 -44 4t-44 -4q6 13 17.5 21t26.5 8zM619 5q-8 8 -19 8h-176q-5 0 -10 -2t-9 -6q-7 -9 -6 -20q4 -43 36 -73q16 -15 36 -22.5t41 -7.5q44 0 77 30q32 30 37 73q0 6 -1.5 11t-5.5 9zM566 -63q-23 -21 -54 -21t-54 21q-9 8 -15.5 19t-8.5 23
h156q-2 -12 -8.5 -23t-15.5 -19z" />
    <glyph glyph-name="uniE602" unicode="&#xe602;" 
d="M193 309h299v-180q0 -8 5.5 -13.5t13.5 -5.5q4 0 7.5 1.5t6 4t4 6t1.5 7.5v180h299v-199q0 -8 5.5 -13.5t13.5 -5.5q5 0 9.5 2.5t7 7t2.5 9.5v206q0 12 -9 21t-22 9h-306v82q0 2 -0.5 4.5t-1.5 4t-2 3.5l-4 2q-1 2 -3 3t-4 1.5t-4 0.5q-8 0 -13.5 -5.5t-5.5 -13.5v-82
h-306q-4 0 -8 -1t-7.5 -3t-6 -4.5t-4.5 -6t-3.5 -7.5t-1.5 -8v-206q0 -8 5.5 -13.5t13.5 -5.5t13.5 5.5t5.5 13.5v199v0zM268 61h-187q-8 0 -13.5 -5.5t-5.5 -13.5v-181q0 -8 5.5 -13.5t13.5 -5.5h187q5 0 9 2.5t7 7t3 9.5v181q0 8 -5.5 13.5t-13.5 5.5zM605 61h-187
q-8 0 -13.5 -5.5t-5.5 -13.5v-181q0 -5 2.5 -9.5t6.5 -7t10 -2.5h187q3 0 6.5 1.5t6 4t4 6t1.5 7.5v181q0 8 -5.5 13.5t-12.5 5.5zM942 61h-188q-7 0 -12.5 -5.5t-5.5 -13.5v-181q0 -8 5.5 -13.5t12.5 -5.5h188q5 0 9 2.5t6.5 7t2.5 9.5v181q0 8 -5.5 13.5t-12.5 5.5z
M361 477h300q4 0 7.5 1.5t6 4t4 6t1.5 7.5v224q0 8 -5.5 13.5t-13.5 5.5h-300q-5 0 -9 -2.5t-6.5 -7t-2.5 -9.5v-224q0 -3 1 -6t2.5 -5t4 -4t5 -3t5.5 -1zM361 477z" />
    <glyph glyph-name="uniE603" unicode="&#xe603;" 
d="M512 748q-91 0 -174 -35.5t-143 -95.5t-95.5 -143t-35.5 -174q0 -73 22.5 -141t64 -123t96.5 -96.5t123.5 -64t141.5 -22.5q91 0 174 35t142.5 95t95 143t35.5 174q0 61 -16 119t-45 107t-70 90.5t-90 70.5t-107 45t-119 16zM511.5 -64q-98.5 0 -182.5 49t-132.5 132.5
t-48.5 182.5t48.5 183t132.5 132.5t182.5 48.5t182.5 -48.5t132.5 -132.5t48.5 -183t-48.5 -182.5t-132.5 -132.5t-182.5 -49zM512 440q-9 0 -16.5 -3t-13.5 -9t-9 -13.5t-3 -16.5v-308q0 -17 12 -29.5t29.5 -12.5t30 12.5t12.5 29.5v308q0 18 -12.5 30t-29.5 12zM511.5 573
q-17.5 0 -29.5 -12t-12 -29.5t12 -30t29.5 -12.5t30 12.5t12.5 30t-12.5 29.5t-30 12z" />
    <glyph glyph-name="uniE604" unicode="&#xe604;" 
d="M692 122l-1 1l-1 1l-2 2q-4 2 -7 3h-4v0h-1h-251h-19h-35h-18q-4 0 -7.5 -1.5t-6 -4t-4 -6t-1.5 -7.5v-2q0 -2 0.5 -3.5t1.5 -3.5l1 -1l2 -3l2 -1q4 -4 10 -5h2h71h253q2 0 4 0.5t3.5 1t3 1.5t2.5 3q1 0 2 1q2 3 3 7l1 1v2v2v0v4l-2 2v4zM226 637v0v-5v1v4zM690 231l-2 3
q-4 2 -7 3h-4v0h-1h-251h-19h-35h-18q-8 0 -13.5 -5.5t-5.5 -13.5v-2q0 -4 2 -7l1 -2l2 -2l1 -1l1 -1q4 -3 10 -4h2h71h253q8 0 13.5 5.5t5.5 13.5q0 4 -1.5 7.5t-4.5 5.5zM806 456v1q0 5 -2 10.5t-7 9.5l-1 1l-106 103q-2 2 -67 65q-2 2 -4 3q-1 1 -2 1.5t-2 1.5
q-5 4 -11 4h-1h-232h-107q-6 0 -11 -1.5t-9.5 -4.5t-8 -6.5t-5.5 -8t-3 -10.5l-1 -7v14v-14v0v0v-198v-284v-149v0v0q0 -14 8.5 -24t21.5 -13q4 -1 8 -1h1h105h400q2 0 5 1q9 2 16 7t11 13t4 17v74q0 8 -5.5 13.5t-13.5 5.5q-4 0 -7.5 -1.5t-6 -4t-4 -6t-1.5 -7.5v-1v-73
h-504v36v91v123v134v123v89v35h323v-143q0 -7 2.5 -13.5t6.5 -11t9.5 -8t12.5 -5.5h7h143v-266q0 -3 1 -6t2.5 -5.5t4 -4t5.5 -2.5t6 -1q8 0 13.5 5.5t5.5 13.5v0v0v57v226v1v1zM625 474v117l122 -117v0v0v0h-1v0h-1v0h-1h-1h-1h-1h-1h-1h-1h-1h-1h-1h-1h-1h-1h-1h-1h-1h-1
h-1h-1h-1h-1h-1h-1h-1h-1h-1h-1h-1h-1h-1h-2h-1h-1h-1h-1h-1h-2h-1h-1h-1h-2h-1h-1h-2h-1h-1h-1h-2h-1h-1h-2h-1h-2h-1h-1h-2h-1h-2h-1h-1h-2h-1h-2h-1h-2h-1h-1h-2h-1h-2h-1h-2h-1h-2h-1h-2h-1h-2h-1h-2h-1h-2h-1h-2h-1h-2h-1h-2h-1h-2h-1h-1h-2h-1h-1zM424 307h253h4l2 1
q1 0 3 1t3 2l1 1l3 3l3 11q0 4 -2 7q-5 12 -17 12h-1h-251h-2h-6h-2h-3h-4h-7h-1h-1h-15h-2h-1h-15h-6h-4h-2h-1q-5 0 -8.5 -2t-6.5 -5q0 -1 -1 -2t-2 -3q-1 -3 -1 -7q0 -3 0.5 -5.5t2 -4.5t3 -3.5t3.5 -3t4.5 -2t5.5 -0.5h71z" />
    <glyph glyph-name="uniE605" unicode="&#xe605;" 
d="M750 706v52h-118v-52h-240v52h-118v-52h-197v-838h870v838h-197zM828 -14h-632v601h78v-62h118v62h240v-62h118v62h78v-601zM279 152h218v-89h-218v89zM713 70l63 63l-223 223l50 50l6 -6l26 26l-98 97l-25 -25l6 -6l-164 -164l-6 6l-25 -26l97 -97l25 25l-6 6l51 51z
" />
    <glyph glyph-name="uniE606" unicode="&#xe606;" 
d="M795 -22h-508h-3q-6 2 -11.5 4t-10 5t-8.5 6.5t-7.5 8t-6 10t-4.5 11.5l-3 9v83l1 1l2 3q48 122 163 179q2 2 5 3l6 2l4 2q3 1 6 3l5 2q-1 1 -4 3.5t-5 4.5l-4 4q-73 75 -51 173q25 112 137 143q2 0 29 5h27l4 -1q30 -6 31 -6q43 -12 75 -41.5t48 -70t12 -84.5
q-3 -37 -19 -68.5t-44 -56.5q0 -1 -2 -2.5t-3 -2.5q3 -2 4 -2q124 -52 180 -175q0 -1 8 -18v-83l-1 -2q-4 -25 -25 -41q-8 -6 -27 -11zM541 19h31h211q24 0 24 24v7v8v7v7v8v7v7v8q0 4 -1 6q-57 133 -194 172q-4 1 -8 0q-13 -5 -25.5 -7.5t-25 -3.5t-25 0t-25 3.5t-25.5 7.5
q-5 1 -9 0q-137 -39 -193 -171q-2 -3 -2 -6v-63q1 -13 10 -17q3 -2 7 -3t8 -1h242zM540.5 601q-59.5 0 -101.5 -42.5t-42 -102.5t42 -103t101.5 -43t101.5 43t42 103t-42 102.5t-101.5 42.5z" />
    <glyph glyph-name="uniE607" unicode="&#xe607;" 
d="M616 113l-181 121q-9 6 -9 18v0h-23l42 -119q1 -5 0 -10.5t-4.5 -10t-9.5 -6.5l-80 -28q-9 -3 -17 1t-11 12l-57 164q-33 8 -56 33q-27 31 -27 73q0 22 8 42t24 35v0q32 32 77 32h134q0 13 11 19l180 120q8 5 16.5 3.5t13.5 -9.5q4 -5 4 -12v-146q22 -6 39 -22v-1
q26 -25 26 -61q0 -12 -3.5 -23t-9 -20.5t-13.5 -17.5q-16 -17 -39 -23v-147q0 -5 -3 -10t-8 -8t-11 -3q-7 0 -13 4v0zM443 295v132h-151q-28 0 -47 -19q-9 -10 -14 -22t-5 -25q0 -12 4.5 -23.5t11.5 -20.5q18 -19 42 -22q14 -1 18 -14l55 -155l20 7l20 7l-44 125q-2 4 -2 8
t1 7.5t3 6t5 4.5t6 3t7 1h70zM469 448v-185l139 -92v380l-139 -92v-11zM651 417v-113q2 1 4.5 2.5t4.5 2.5t4 3l4 2l4 4q3 3 5 6t4 6.5t3.5 7t3 7.5t2 8t0.5 8q0 25 -18 43h-1q-4 5 -9 8t-11 5v0z" />
    <glyph glyph-name="uniE608" unicode="&#xe608;" 
d="M512 688l283 -302h-10h-55v-55v-327h-109v232v54h-54h-110h-54v-54v-232h-109v327v55h-55h-10zM512 768l-409 -437h136v-382h218v287h110v-287h218v382h136z" />
    <glyph glyph-name="uniE609" unicode="&#xe609;" 
d="M524 372l89 89l2 2q14 14 28 9q3 -1 6.5 -1t7 1t7 2.5t6.5 4t5.5 5t5 6t3.5 6.5q5 11 3 22t-12 21q-108 109 -192 193q-22 21 -45 7q-31 -19 -20 -49q3 -6 -3 -13l-43 -43l-47 -47l-42 -42q-17 -17 -46 -45q-11 -12 -31 -32t-36.5 -37t-31.5 -31q-7 -8 -16 -5
q-9 4 -17.5 2.5t-16 -7.5t-13.5 -15q-13 -23 7 -44l194 -194q9 -10 21.5 -12t22.5 5q29 18 20 48q-2 7 3 11q6 7 18.5 19.5t25 25.5t24.5 25l19 19l8 8l464 -425l52 52zM137 -29h331v-110h-331v110z" />
    <glyph glyph-name="uniE60A" unicode="&#xe60a;" 
d="M819 419h-69q-1 0 -2 -1h-4q-1 -1 -3 -2l-31 94q-7 38 -32 58t-61 20h-290q-11 0 -21 -2t-19 -6t-16 -9t-13 -12t-11 -14.5t-8 -16.5t-5 -18l-31 -94q-5 3 -9 3h-69q-8 0 -13.5 -5.5t-5.5 -13.5v-17q0 -3 1 -6t2.5 -5t4 -4t5.5 -3t6 -1l26 -4q-4 -8 -7 -17t-4.5 -18.5
t-1.5 -20.5l-10 -110q0 -4 1 -10q0 -1 -0.5 -2.5t-0.5 -3.5v-132q0 -9 5 -17t12.5 -12.5t17.5 -4.5h52q14 0 24 10t10 24v42h447v-42q0 -5 1 -9t3.5 -8t5.5 -7t6.5 -5.5t8 -3.5t9.5 -1h52q7 0 13 2.5t11 7t7.5 11t2.5 13.5v132q0 3 -1 6q1 6 1 10l-10 110q0 31 -13 56l26 4
q5 0 9.5 2.5t7 7t2.5 9.5v17q0 4 -1.5 7.5t-4 6t-6 4t-7.5 1.5v0zM257 438l23 61v1q1 3 1.5 5.5t1.5 4t2.5 3.5t2.5 3.5t3 3.5l4 4h355q2 -2 5 -6q8 -10 9 -18l23 -62l9 -33q-1 -18 -19 -31t-37 -13h-335q-4 0 -8 0.5t-7.5 1.5t-7.5 2.5t-7.5 3.5t-6.5 5l-6 4q-3 3 -5.5 6
t-4 6.5t-2.5 7t-1 7.5l8 33v0zM273 151q-22 0 -37 15t-15 36.5t15 36.5t37 15q10 0 19.5 -4t16.5 -11t11 -16.5t4 -19.5q0 -14 -6.5 -26t-18.5 -19t-26 -7v0zM561 189q0 -4 -2 -7.5t-5.5 -5.5t-7.5 -2h-145q-6 0 -10.5 4.5t-4.5 10.5v43q0 7 4.5 11.5t10.5 4.5h145
q6 0 10.5 -4.5t4.5 -11.5v-43v0zM672 151q-22 0 -37 15t-15 37q0 7 2 13.5t5 12t8 10.5t10.5 8.5t12.5 5t14 1.5q10 0 19.5 -4t16.5 -11t11 -16.5t4 -19.5q0 -22 -15 -37t-36 -15v0zM672 151z" />
    <glyph glyph-name="uniE60B" unicode="&#xe60b;" 
d="M512 -64q-187 0 -317.5 130.5t-130.5 317.5t130.5 317.5t317.5 130.5t317.5 -130.5t130.5 -317.5t-130.5 -317.5t-317.5 -130.5zM512 768q-158 0 -271 -113t-113 -271t113 -271t271 -113t271 113t113 271t-113 271t-271 113zM698 282h-154v-96q0 -18 -20 -24
q-6 -2 -12 -2q-9 0 -16.5 3.5t-11.5 9.5t-4 13v96h-154q-10 0 -17.5 9t-7.5 23q0 9 3.5 16.5t9.5 11.5t12 4h160v57h-102q-4 0 -7.5 1.5t-7 4.5t-6 6.5t-4 9t-1.5 10.5q0 10 8 18t18 8h77l-90 102q-9 5 -5.5 13.5t18.5 18.5q10 10 21.5 13t16.5 -6l90 -96l90 96q3 6 9.5 6.5
t14 -3t14.5 -10.5q21 -21 13 -38l-90 -96h77q6 0 12 -4t10 -11.5t4 -16.5q0 -14 -8 -23t-18 -9h-96v-58h160q6 0 12 -4t10 -11.5t4 -16.5q-14 -24 -32 -25z" />
    <glyph glyph-name="uniE60C" unicode="&#xe60c;" 
d="M512 13q-75 0 -144 29q-14 6 -26.5 12.5t-24.5 14t-23.5 16t-22.5 17.5t-21 20q-52 51 -80 118q-14 34 -21.5 70t-7.5 74q0 75 29 144q28 67 80 118q25 26 54.5 46t63.5 34q69 29 144 29t144 -29q67 -28 118.5 -79.5t79.5 -118.5q29 -69 29 -144t-29 -144
q-28 -67 -79.5 -118.5t-118.5 -79.5q-69 -29 -144 -29zM512 721q-69 0 -131 -26q-61 -26 -107.5 -72.5t-72.5 -107.5q-26 -62 -26 -131t26 -131q26 -61 72.5 -107.5t107.5 -72.5q62 -26 131 -26t131 26q61 26 107.5 72.5t72.5 107.5q26 62 26 131t-26 131
q-26 61 -72.5 107.5t-107.5 72.5q-62 26 -131 26zM712 584q-5 5 -11 1l-235 -152q-2 -1 -3 -3l-152 -235q-4 -6 1 -11q3 -2 6 -2h2q2 0 3 1l235 152q2 1 3 3l152 235q2 3 1.5 6t-2.5 5zM512 349q-15 0 -25 10t-10 25q0 10 4.5 18t12.5 12.5t18 4.5q15 0 25 -10t10 -25
t-10 -25t-25 -10z" />
    <glyph glyph-name="uniE60D" unicode="&#xe60d;" 
d="M512 -121q-114 0 -211 56.5t-153.5 153.5t-56.5 211t56.5 211t153.5 153.5t211 56.5t211 -56.5t153.5 -153.5t56.5 -211q0 -69 -21.5 -133t-60 -116t-90.5 -90.5t-116 -60t-133 -21.5zM849 196q16 52 16 104q0 41 -11 84q-3 -2 -6 -3t-6 -1h-102q8 -43 8 -80
q0 -26 -3 -51.5t-8 -50.5h105q3 0 7 -2zM341 300q0 -51 12 -102h125v182h-130q-7 -42 -7 -80zM675 380h-129v-182h124q12 51 12 102q0 37 -7 80zM832 152h-109q-38 -109 -136 -197q81 18 146 70t99 127zM657 152h-111v-171q0 -2 -0.5 -4.5t-1.5 -5.5q25 25 46.5 53.5
t38.5 60.5t28 67zM512 -53h4q2 1 3 1h1v1q-6 -2 -8 -2zM509 -53h1h2q-1 0 -2 1h-2zM478 -19v171h-112q36 -103 113 -178l-1 2v3v2zM439 -45q-101 88 -141 197h-106q23 -50 60 -90t85 -68t102 -39zM175 196q4 2 7 2h103q-12 50 -12 102q0 37 8 80h-99q-3 0 -6 1t-6 3
q-11 -43 -11 -84q0 -27 4 -53t12 -51zM182 425h111q41 126 157 222q-92 -16 -163.5 -76t-104.5 -146zM359 425h119v199q-86 -84 -119 -199zM546 425h118q-33 117 -118 201v-201zM576 647q56 -48 94.5 -104t58.5 -118h113q-33 86 -104 145.5t-162 76.5z" />
    <glyph glyph-name="uniE60E" unicode="&#xe60e;" 
d="M338 -66v68l289 290l-289 290v68l358 -358z" />
    <glyph glyph-name="uniE60F" unicode="&#xe60f;" 
d="M877 493q-9 9 -22 9t-22 -9l-319 -322l-323 320q-6 6 -14 8.5t-16 0t-14 -8.5t-8.5 -14t0 -16t8.5 -14l344 -341h1v-1h1q3 -3 6.5 -5t7.5 -3t8 -1t7.5 1t7.5 3t7 5l340 344q6 6 8.5 14t0 16t-8.5 14zM877 493z" />
    <glyph glyph-name="uniE610" unicode="&#xe610;" 
d="M927 200l-417 407l-415 -407l37 -38l378 371l380 -371z" />
    <glyph glyph-name="uniE611" unicode="&#xe611;" 
d="M436 353l-31 31l31 32l232 233q3 2 4.5 5.5t2 7t0 6.5t-2 6.5t-4.5 5.5q-6 7 -15.5 7t-15.5 -7l-279 -280q-3 -3 -5 -7.5t-2 -8.5t2 -8.5t5 -7.5l279 -280q6 -7 15.5 -7t16 6.5t6.5 16t-7 15.5z" />
    <glyph glyph-name="uniE612" unicode="&#xe612;" 
d="M46 451q0 25 18.5 42.5t44.5 17.5h63v-273h-63q-26 0 -44.5 17.5t-18.5 43.5v152zM387 107q2 -6 5 -12.5t7 -13.5q6 -12 16 -29q5 -8 11 -17t13 -19q8 -11 17 -23.5t17 -25.5q18 -25 27 -46t5.5 -34.5t-28.5 -13.5h-57q-10 0 -19.5 1.5t-18 5.5t-16.5 9.5t-16 12.5
q-3 3 -6 6.5t-6.5 7t-6.5 7.5t-6.5 8.5t-6.5 9.5q-16 23 -35 55q-23 37 -32 64.5t-12 45.5q-4 22 0 37q8 -1 19 -4l22 -4q13 -3 30 -6q17 -4 30 -7q7 -2 13 -4l12 -4q12 -4 22 -8v1zM387 107zM985 460q-6 57 -18 109t-31 94t-46 64t-62 18t-78 -44q-43 -38 -96 -63
q-27 -13 -54 -23t-55 -18q-56 -16 -109 -25q-18 -3 -34.5 -6t-32 -6t-29.5 -5q-43 -8 -70.5 -16.5t-31.5 -22.5v-304q4 -9 37.5 -16t83.5 -14q50 -8 110.5 -17t118.5 -24q20 -5 38.5 -11t36 -12.5t33.5 -13.5q50 -22 79 -55q30 -33 57.5 -37.5t51.5 11.5q12 8 23 20.5
t21 29.5q19 35 33.5 80t22.5 96q1 7 2 14.5t2 14.5v16q1 7 1.5 14t1 14.5t0.5 15.5v14q0 51 -6 108zM855 80q-31 0 -53 87t-22 210q0 81 10 149.5t27 108t38 39.5q32 0 60 -89t28 -208q0 -48 -5.5 -94t-14 -82t-19.5 -64t-24 -42.5t-25 -14.5z" />
    <glyph glyph-name="uniE613" unicode="&#xe613;" 
d="M804 126v275q0 52 -18.5 101t-50.5 86t-76 63t-95 35v22q0 14 -10 24t-24 10h-34q-9 0 -17 -4.5t-12.5 -12.5t-4.5 -17v-22q-67 -12 -121.5 -52.5t-86 -101.5t-31.5 -131v-275l-119 -97v-55h819v55zM889 8h-751v5l107 87l13 10v16v275q0 69 34 128t93 93.5t129 34.5
q105 0 180.5 -75t75.5 -181v-275v-16l12 -10l107 -87v-5zM513 -145q14 0 27 4t23.5 12t18.5 18.5t12.5 23.5t4.5 27h-171q0 -23 11.5 -42.5t31 -31t42.5 -11.5z" />
  </font>
</defs>
</svg>
